<?xml version="1.0" standalone="no"?>
<!DOCTYPE svg PUBLIC "-//W3C//DTD SVG 20010904//EN"
 "http://www.w3.org/TR/2001/REC-SVG-20010904/DTD/svg10.dtd">
<svg version="1.0" xmlns="http://www.w3.org/2000/svg"
 width="180.000000pt" height="180.000000pt" viewBox="0 0 180.000000 180.000000"
 preserveAspectRatio="xMidYMid meet">

<g transform="translate(0.000000,180.000000) scale(0.100000,-0.100000)"
fill="#000000" stroke="none">
<path d="M160 1380 l0 -360 360 0 360 0 0 360 0 360 -360 0 -360 0 0 -360z
m480 120 c0 -17 -7 -20 -50 -20 l-50 0 0 -145 0 -145 -25 0 -25 0 0 145 0 145
-50 0 c-43 0 -50 3 -50 20 0 19 7 20 125 20 118 0 125 -1 125 -20z"/>
<path d="M920 420 l0 -360 360 0 360 0 0 360 0 360 -360 0 -360 0 0 -360z
m268 122 l3 -72 89 0 89 0 3 73 c3 64 5 72 23 72 19 0 20 -7 20 -165 0 -158
-1 -165 -20 -165 -18 0 -20 8 -23 68 l-3 67 -89 0 -89 0 -3 -67 c-3 -60 -5
-68 -23 -68 -19 0 -20 8 -23 155 -1 85 0 160 3 168 3 7 13 12 22 10 15 -3 19
-16 21 -76z"/>
</g>
</svg>
